Land_normalized_pl02_filtered_grf
version=1
nRows=25
nColumns=37
inDegrees=yes
endheader
time		1_ground_force_vx		1_ground_force_vy		1_ground_force_vz		1_ground_force_px		1_ground_force_py		1_ground_force_pz		1_ground_torque_x		1_ground_torque_y		1_ground_torque_z		2_ground_force_vx		2_ground_force_vy		2_ground_force_vz		2_ground_force_px		2_ground_force_py		2_ground_force_pz		2_ground_torque_x		2_ground_torque_y		2_ground_torque_z		3_ground_force_vx		3_ground_force_vy		3_ground_force_vz		3_ground_force_px		3_ground_force_py		3_ground_force_pz		3_ground_torque_x		3_ground_torque_y		3_ground_torque_z		4_ground_force_vx		4_ground_force_vy		4_ground_force_vz		4_ground_force_px		4_ground_force_py		4_ground_force_pz		4_ground_torque_x		4_ground_torque_y		4_ground_torque_z		
1.076167		-82.185804		959.833193		340.736444		0.116564		0.000000		0.208077		-1.594525		18.622193		6.610782		58.823758		851.278777		369.686387		-0.216287		0.000000		0.212969		2.980606		43.132877		18.731836		0.573208		-0.300662		-0.109016		0.413014		1.262581		1.872451		0.004611		0.018275		0.038989		-0.658211		-1.885680		-1.996339		-0.354012		1.256661		1.900110		0.032683		-0.033320		0.038934		
1.079096		-80.179820		968.704115		332.213222		0.116767		0.000000		0.208804		-1.578507		19.071041		6.540315		55.833548		885.555034		357.092926		-0.212815		0.000000		0.217865		2.675882		42.440320		17.114065		0.581889		-0.223159		0.030634		0.413024		1.262573		1.872377		0.003744		0.019595		0.037533		-0.557765		-1.993986		-1.927729		-0.354005		1.256647		1.900021		0.031782		-0.036437		0.040694		
1.082025		-76.722853		979.073777		324.020004		0.116864		0.000000		0.209572		-1.548806		19.764633		6.541005		54.556797		921.090832		343.229635		-0.209892		0.000000		0.222497		2.468863		41.682057		15.532241		0.595495		-0.148107		0.163267		0.413036		1.262564		1.872307		0.003439		0.020431		0.035521		-0.519070		-2.090592		-1.871734		-0.353992		1.256634		1.899935		0.030914		-0.039510		0.041981		
1.084955		-72.197788		989.800333		316.094571		0.116883		0.000000		0.210316		-1.504007		20.619410		6.584828		54.808613		954.885268		329.622128		-0.207636		0.000000		0.226309		2.350686		40.953958		14.137252		0.613264		-0.083892		0.284753		0.413046		1.262554		1.872245		0.003831		0.020893		0.033216		-0.543697		-2.165188		-1.828351		-0.353973		1.256623		1.899854		0.030110		-0.042477		0.042721		
1.087884		-67.019351		999.905547		308.302979		0.116862		0.000000		0.211009		-1.444243		21.547944		6.643882		56.262019		984.964567		317.235709		-0.205999		0.000000		0.229091		2.304123		40.337719		12.992090		0.632160		-0.038169		0.391475		0.413054		1.262544		1.872189		0.004986		0.021118		0.030930		-0.622857		-2.209953		-1.796376		-0.353952		1.256614		1.899779		0.029397		-0.045285		0.042931		
1.090813		-61.587849		1008.599314		300.488545		0.116836		0.000000		0.211639		-1.372239		22.473086		6.695279		58.566289		1010.316105		306.518573		-0.204862		0.000000		0.230866		2.311768		39.880082		12.099315		0.647177		-0.017035		0.479921		0.413061		1.262536		1.872141		0.006874		0.021225		0.028978		-0.739770		-2.220854		-1.774256		-0.353928		1.256607		1.899713		0.028799		-0.047870		0.042697		
1.093742		-56.256329		1015.271926		292.512063		0.116835		0.000000		0.212202		-1.293055		23.336585		6.723503		61.397232		1030.670446		297.516186		-0.204096		0.000000		0.231789		2.358224		39.587534		11.427532		0.652235		-0.024130		0.546734		0.413066		1.262530		1.872100		0.009374		0.021275		0.027624		-0.873305		-2.198280		-1.760707		-0.353906		1.256602		1.899656		0.028336		-0.050145		0.042128		
1.096672		-51.315032		1019.477747		284.286215		0.116879		0.000000		0.212699		-1.212809		24.095301		6.719052		64.457577		1046.254019		289.994533		-0.203579		0.000000		0.232075		2.429199		39.430094		10.929042		0.641523		-0.059720		0.589319		0.413071		1.262526		1.872066		0.012286		0.021267		0.027030		-1.002105		-2.147073		-1.754762		-0.353884		1.256598		1.899607		0.028017		-0.052000		0.041332		
1.099601		-46.986797		1020.916711		275.796553		0.116982		0.000000		0.213134		-1.137453		24.714480		6.676497		67.461925		1057.552390		283.562466		-0.203211		0.000000		0.231948		2.510185		39.350434		10.551082		0.611117		-0.120240		0.606698		0.413077		1.262526		1.872040		0.015367		0.021161		0.027221		-1.108592		-2.075772		-1.755314		-0.353863		1.256594		1.899569		0.027847		-0.053329		0.040397		
1.102530		-43.424184		1019.420599		267.102157		0.117146		0.000000		0.213514		-1.072087		25.168232		6.594416		70.134083		1065.123337		277.779543		-0.202911		0.000000		0.231609		2.586198		39.276494		10.243142		0.560349		-0.198543		0.600197		0.413084		1.262530		1.872024		0.018370		0.020935		0.028083		-1.181874		-1.995158		-1.760404		-0.353846		1.256592		1.899541		0.027820		-0.054045		0.039409		
1.105460		-40.707991		1014.936980		258.318800		0.117375		0.000000		0.213852		-1.020596		25.445688		6.476357		72.229650		1069.464875		272.239583		-0.202619		0.000000		0.231223		2.643172		39.136020		9.962344		0.492450		-0.284888		0.573496		0.413095		1.262539		1.872018		0.021075		0.020616		0.029385		-1.218952		-1.916421		-1.766745		-0.353830		1.256590		1.899522		0.027931		-0.054108		0.038449		
1.108389		-38.845764		1007.534961		249.596963		0.117664		0.000000		0.214171		-0.985243		25.554111		6.330520		73.580747		1070.968915		266.627623		-0.202300		0.000000		0.230908		2.670663		38.871558		9.677444		0.414385		-0.368474		0.532111		0.413108		1.262551		1.872020		0.023323		0.020279		0.030837		-1.224644		-1.849323		-1.769910		-0.353816		1.256589		1.899514		0.028178		-0.053533		0.037589		
1.111318		-37.788520		997.384252		241.101322		0.118010		0.000000		0.214487		-0.966543		25.510800		6.166811		74.127756		1069.904574		260.758708		-0.201940		0.000000		0.230730		2.664097		38.451595		9.371493		0.335549		-0.439428		0.482001		0.413124		1.262565		1.872032		0.025022		0.020022		0.032156		-1.209821		-1.800511		-1.765464		-0.353805		1.256589		1.899515		0.028569		-0.052386		0.036869		
1.114247		-37.451477		984.730169		232.996941		0.118406		0.000000		0.214814		-0.963476		25.333134		5.994067		73.914783		1066.443673		254.588707		-0.201549		0.000000		0.230718		2.624991		37.873400		9.041413		0.265815		-0.490381		0.428027		0.413142		1.262579		1.872051		0.026152		0.019916		0.033130		-1.188814		-1.772451		-1.750483		-0.353794		1.256590		1.899524		0.029117		-0.050765		0.036285		
1.117177		-37.722906		969.886970		225.434614		0.118840		0.000000		0.215153		-0.973808		25.037403		5.819540		73.057412		1060.715202		248.201959		-0.201148		0.000000		0.230857		2.559365		37.159189		8.695077		0.213467		-0.517360		0.372822		0.413161		1.262592		1.872080		0.026751		0.019974		0.033649		-1.176530		-1.762929		-1.725035		-0.353784		1.256591		1.899544		0.029836		-0.048765		0.035792		
1.120106		-38.468396		953.232455		218.534434		0.119298		0.000000		0.215492		-0.994540		24.644340		5.649867		71.696163		1052.856843		241.778122		-0.200760		0.000000		0.231109		2.475136		36.347287		8.346804		0.183613		-0.519890		0.316276		0.413180		1.262602		1.872115		0.026900		0.020134		0.033714		-1.185554		-1.765491		-1.692894		-0.353776		1.256594		1.899575		0.030734		-0.046462		0.035326		
1.123035		-39.540184		935.206123		212.372743		0.119762		0.000000		0.215818		-1.022375		24.181254		5.491238		69.957353		1043.062872		235.548714		-0.200405		0.000000		0.231416		2.379758		35.482121		8.012720		0.177479		-0.500509		0.255796		0.413195		1.262610		1.872158		0.026695		0.020272		0.033418		-1.223866		-1.770944		-1.661052		-0.353768		1.256598		1.899619		0.031806		-0.043894		0.034836		
1.125965		-40.795327		916.303473		206.976478		0.120221		0.000000		0.216120		-1.054113		23.676431		5.348080		67.931767		1031.617737		229.756672		-0.200097		0.000000		0.231713		2.278802		34.606066		7.707290		0.192648		-0.463957		0.187123		0.413207		1.262613		1.872207		0.026227		0.020224		0.032907		-1.293572		-1.769646		-1.638065		-0.353760		1.256604		1.899673		0.033020		-0.041078		0.034298		
1.128894		-42.112711		897.066147		202.315199		0.120673		0.000000		0.216409		-1.086927		23.153235		5.221746		65.674404		1018.919800		224.621585		-0.199841		0.000000		0.231941		2.175651		33.754571		7.441223		0.223836		-0.416415		0.105495		0.413215		1.262613		1.872263		0.025569		0.019819		0.032351		-1.390311		-1.754180		-1.631696		-0.353753		1.256612		1.899740		0.034296		-0.038037		0.033714		
1.131823		-43.403025		878.050340		198.297155		0.121124		0.000000		0.216705		-1.118661		22.630707		5.110874		63.217536		1005.468037		220.314489		-0.199638		0.000000		0.232059		2.071956		32.954182		7.220802		0.264072		-0.364690		0.006907		0.413218		1.262611		1.872324		0.024770		0.018909		0.031908		-1.503923		-1.721666		-1.646601		-0.353748		1.256621		1.899818		0.035504		-0.034823		0.033103		
1.134753		-44.610261		859.795861		194.772968		0.121586		0.000000		0.217040		-1.148095		22.127826		5.012704		60.589711		991.826940		216.948878		-0.199483		0.000000		0.232041		1.968506		32.223511		7.048462		0.305695		-0.315478		-0.110773		0.413216		1.262607		1.872391		0.023853		0.017397		0.031698		-1.620240		-1.674544		-1.683273		-0.353745		1.256632		1.899907		0.036476		-0.031540		0.032482		
1.137682		-45.713859		842.800690		191.544039		0.122075		0.000000		0.217449		-1.175000		21.662822		4.923328		57.832494		978.587622		214.577358		-0.199375		0.000000		0.231883		1.866021		31.575034		6.923535		0.340966		-0.274644		-0.246670		0.413211		1.262605		1.872462		0.022834		0.015261		0.031782		-1.723393		-1.619770		-1.738411		-0.353744		1.256645		1.900007		0.037045		-0.028326		0.031862		
1.140611		-46.730960		827.501509		188.381528		0.122605		0.000000		0.217963		-1.199903		21.247610		4.837039		55.007272		966.322344		213.196844		-0.199311		0.000000		0.231600		1.765612		31.016788		6.843141		0.362723		-0.246309		-0.396117		0.413203		1.262604		1.872537		0.021730		0.012569		0.032148		-1.798394		-1.566684		-1.806649		-0.353748		1.256659		1.900114		0.037091		-0.025320		0.031251		
1.143540		-47.710104		814.261916		185.049564		0.123191		0.000000		0.218612		-1.223735		20.885328		4.746410		52.193694		955.542955		212.756262		-0.199291		0.000000		0.231223		1.668891		30.553437		6.802870		0.365252		-0.231957		-0.550546		0.413193		1.262606		1.872617		0.020571		0.009470		0.032720		-1.833407		-1.524399		-1.882854		-0.353756		1.256674		1.900231		0.036575		-0.022606		0.030667		
1.146470		-48.713395		803.369452		181.328729		0.123843		0.000000		0.219417		-1.247583		20.574846		4.643954		49.486526		946.671644		213.162336		-0.199319		0.000000		0.230791		1.578002		30.186987		6.797213		0.345337		-0.229972		-0.698307		0.413183		1.262613		1.872700		0.019419		0.006164		0.033372		-1.821418		-1.499571		-1.963999		-0.353769		1.256690		1.900352		0.035559		-0.020186		0.030143		
